# xmcd
#
# Track frame offsets:
#	150
#	23521
#	43279
#	61609
#	96769
#	114720
#	133891
#	154566
#	172445
#	193428
#	211590
#	232057
#	254011
#
# Disc length: 4425 seconds
#
# Revision: 0
# Processed by: cddbd v1.5.2PL0 Copyright (c) Steve Scherf et al.
# Submitted via: EasyCDDAExtractor 10.0.3.1
#
DISCID=bf11470d
DTITLE=EXODUS - ZŁOTA KOLEKCJA - Najpiękniejszy Dzień
DYEAR=1900
DGENRE=
TTITLE0=Niedokończony Sen
TTITLE1=Złoty Promień Słońca
TTITLE2=Dotyk Szczęścia
TTITLE3=Ostatni Teatrzyk Objazdowy
TTITLE4=Jestem Automatem
TTITLE5=Ponury Pejzaż
TTITLE6=Praktyczny Kolor
TTITLE7=Relacja Z Giełdy
TTITLE8=Ciągle Czekam
TTITLE9=Wszystko Płynie
TTITLE10=Stary Noe
TTITLE11=Widok Z Góry Najwyższej
TTITLE12=Ten Najpiękniejszy Dzień
EXTD=
EXTT0=
EXTT1=
EXTT2=
EXTT3=
EXTT4=
EXTT5=
EXTT6=
EXTT7=
EXTT8=
EXTT9=
EXTT10=
EXTT11=
EXTT12=
PLAYORDER=
